<svg id="Logo" xmlns="http://www.w3.org/2000/svg" xmlns:xlink="http://www.w3.org/1999/xlink" viewBox="0 0 251.84 434.63"><defs><style>.cls-1{fill:url(#linear-gradient);}.cls-2{fill:#fff;}.cls-3{fill:url(#linear-gradient-2);}.cls-4{fill:url(#linear-gradient-3);}.cls-5{fill:#32e0c4;}.cls-10,.cls-6,.cls-7{isolation:isolate;}.cls-7{font-size:45.63px;fill:#1b82a8;font-family:Quicksand-Medium, Quicksand;font-weight:500;letter-spacing:0.01em;}.cls-8{letter-spacing:0em;}.cls-9{letter-spacing:0.01em;}.cls-10{font-size:118.63px;fill:#5fdde5;font-family:Quicksand-Light, Quicksand Light;font-weight:300;letter-spacing:-0.1em;}</style><linearGradient id="linear-gradient" x1="-67.6" y1="-67.6" x2="439.25" y2="439.25" gradientUnits="userSpaceOnUse"><stop offset="0" stop-color="#32e0c4"/><stop offset="0.46" stop-color="#1b82a8"/><stop offset="0.68" stop-color="#24579f"/><stop offset="0.97" stop-color="#302394"/></linearGradient><linearGradient id="linear-gradient-2" x1="95.76" y1="119.31" x2="299.79" y2="323.36" gradientTransform="translate(153.19 -49.66) rotate(45)" gradientUnits="userSpaceOnUse"><stop offset="0" stop-color="#1b82a8"/><stop offset="1" stop-color="#302394"/></linearGradient><linearGradient id="linear-gradient-3" x1="227.29" y1="208.21" x2="227.29" y2="-1.04" gradientTransform="translate(454.58 334.96) rotate(180)" xlink:href="#linear-gradient-2"/></defs><path class="cls-1" d="M258.87,252.88a125.65,125.65,0,1,0-33.53,25.57l17.95,17.94a20.9,20.9,0,0,0,29.55,0h0a20.88,20.88,0,0,0,0-29.54Z" transform="translate(-40.97 -40.97)"/><circle id="bg" class="cls-2" cx="125.92" cy="126.64" r="109.77"/><g id="M"><rect class="cls-3" x="116.05" y="96.96" width="40.97" height="126.27" rx="20.49" transform="translate(-114.19 102.46) rotate(-45)"/><rect class="cls-4" x="206.8" y="109.38" width="40.97" height="116.2" rx="20.49" transform="translate(413.6 293.98) rotate(-180)"/><rect class="cls-5" x="43.91" y="66.86" width="40.97" height="118.11" rx="20.49"/><rect class="cls-5" x="177.48" y="95.14" width="40.97" height="128.37" rx="20.49" transform="translate(184.32 371) rotate(-135)"/></g><g id="marca"><g id="BUSCA" class="cls-6"><text class="cls-7" transform="translate(24.65 307.4)">B<tspan class="cls-8" x="30.25" y="0">U</tspan><tspan class="cls-9" x="62.55" y="0">SCA</tspan></text></g><g id="MED" class="cls-6"><text class="cls-10" transform="translate(16.24 409.6)">MED</text></g></g></svg>